<svg width="432" height="265" viewBox="0 0 432 265" fill="none" xmlns="http://www.w3.org/2000/svg">
<path d="M341.084 129.125C300.222 130.946 282.581 170.171 279.273 207.118C275.316 250.896 330.252 268.069 364.822 264.556C403.673 260.588 434.286 223.706 431.303 184.026C428.06 140.508 376.432 127.434 341.149 129.125C320.069 130.166 319.94 163.21 341.149 162.105C358.985 161.194 383.631 160.999 394.593 178.692C403.932 193.848 391.414 219.933 376.432 228.064C361.449 236.195 329.085 233.918 317.734 220.779C304.244 205.037 323.701 162.885 341.149 162.105C362.228 161.194 362.358 128.149 341.149 129.125H341.084Z" fill="#80ECE0"/>
<path d="M117.989 16.7063C99.4411 12.6972 80.8929 8.68809 62.3448 4.74364C51.7646 2.48042 38.2454 -3.08062 27.6652 2.22177C17.0849 7.52416 16.3665 18.6462 13.95 28.9277C9.44361 48.3913 4.93736 67.855 0.430964 87.254C-1.07117 93.785 1.34514 101.933 7.81084 105.166C41.8374 122.366 76.7784 144.028 112.96 156.444C119.818 158.772 127.394 154.827 131.051 149.137C139.803 135.751 134.447 112.537 133.859 97.5354C133.076 75.6792 132.031 53.8231 129.745 32.0315C127.655 11.9213 95.5877 11.7273 97.6776 32.0315C99.5063 49.8139 100.551 67.5963 101.335 85.4434C101.662 93.3969 101.923 101.415 102.184 109.369C102.315 113.313 105.254 130.19 103.294 133.1L121.385 125.793C87.9464 114.348 55.4221 93.6556 23.8773 77.7485L31.2573 95.6602C33.1513 87.5126 41.0537 34.4887 45.1682 33.0661C47.9766 32.0962 66.9165 38.1099 72.3373 39.2738C84.6809 41.925 97.0899 44.5762 109.434 47.2921C129.549 51.6245 138.105 21.0388 117.924 16.7063H117.989Z" fill="#F7CB62"/>
</svg>
