<svg width="1521" height="3208" viewBox="0 0 1521 3208" fill="none" xmlns="http://www.w3.org/2000/svg">
<path d="M1077 9.18848C1077 100.188 1136.6 258.488 1341 265.688C1596.5 274.688 1536 37.1885 1355.5 95.6885C1175 154.188 1296.5 350.688 1355.5 450.188C1414.5 549.688 1547 905.688 1416 1009.19C1285 1112.69 1241.71 1173.82 1345 1376.19C1467.5 1616.19 1535.96 1100.86 1368.5 1270.69C1192 1449.69 1288.5 1673.19 1338.5 1764.69C1388.5 1856.19 1316.5 2013.19 1087 2144.19C857.501 2275.19 208.501 2198.19 68.501 2453.19C-71.4988 2708.19 78.9989 3133.5 79.0001 3199" stroke="#8690FF" stroke-width="17" stroke-linecap="square"/>
</svg>
