<svg width="224" height="145" viewBox="0 0 224 145" fill="none" xmlns="http://www.w3.org/2000/svg">
<path d="M223.759 34.2329L203.702 93.4044C202.875 95.858 200.221 97.1704 197.767 96.3287L185.185 92.0635C182.731 91.2361 181.419 88.5828 182.261 86.1292C183.445 82.6628 183.102 79.0395 181.59 75.9867C180.064 72.8912 177.353 70.3948 173.815 69.2394C166.84 66.9569 159.35 70.994 156.996 77.941C156.226 80.1949 153.786 81.4075 151.518 80.6371L138.593 76.2578C136.14 75.4304 134.827 72.7771 135.669 70.3235L140.049 57.3993C140.819 55.1455 139.606 52.7061 137.352 51.9358H137.324C130.491 49.6106 126.468 42.3212 128.55 35.4169C130.733 28.1845 138.437 24.2616 145.527 26.6581L145.883 26.7865C148.137 27.5568 150.577 26.3443 151.347 24.0904L155.727 11.1662C156.554 8.71263 159.207 7.40024 161.661 8.24188L177.382 13.577C178.095 13.8195 178.865 13.4344 179.108 12.7211L180.05 9.92516C182.403 2.97807 189.893 -1.05895 196.869 1.22346C200.407 2.37894 203.131 4.87532 204.643 7.97084C206.141 11.0093 206.484 14.6326 205.314 18.1133L204.244 21.2659C204.002 21.9792 204.387 22.7495 205.1 22.992L220.821 28.3271C223.274 29.1545 224.587 31.8078 223.745 34.2614L223.759 34.2329Z" fill="#F7CB62"/>
<path d="M61.8136 87.0916C64.7436 93.7895 72.5147 96.8185 79.1817 93.889C81.5314 92.8509 84.2633 93.9174 85.2966 96.2781L90.6047 108.394C91.638 110.755 90.5764 113.499 88.2267 114.537L73.2649 121.15C72.5147 121.477 72.175 122.358 72.5005 123.112L73.6471 125.729C76.5205 132.299 73.8877 140.148 67.4472 143.263C60.6953 146.533 52.6412 143.504 49.6545 136.664L48.3805 133.749C48.055 132.995 47.1774 132.654 46.4272 132.981L31.4654 139.594C29.1157 140.632 26.3838 139.565 25.3505 137.205L0.395312 80.1947C-0.637998 77.8341 0.423622 75.0895 2.77334 74.0514L15.1164 68.5907C17.3105 67.6237 19.8725 68.6192 20.835 70.8233C23.6094 77.1515 30.7152 80.5502 37.2265 78.3318C44.6436 75.8005 48.1682 67.51 45.0824 60.4566C44.0491 58.096 45.1107 55.3514 47.4605 54.3133L59.5205 48.9806C61.8702 47.9425 64.6021 49.0091 65.6354 51.3697L72.812 67.7659L68.5513 69.643C61.8985 72.5867 58.8693 80.3938 61.7994 87.0774L61.8136 87.0916Z" fill="#80ECE0"/>
</svg>
