<svg width="367" height="164" viewBox="0 0 367 164" fill="none" xmlns="http://www.w3.org/2000/svg">
<path d="M2.4462 130.457C1.32403 126.099 0.532354 121.956 0.101931 118.005C-0.559077 112.31 1.99272 108.129 7.81881 105.569C11.5543 103.932 16.2582 102.472 21.9382 101.242C27.7797 99.9738 32.6758 99.3512 36.588 99.3128C42.9598 99.2206 47.0565 101.957 48.8782 107.406C49.8697 109.643 50.915 113.732 52.0141 119.681C53.536 127.921 54.3584 135.953 54.4814 139.611C54.5813 141.955 54.0432 143.869 52.8673 145.345C51.6913 146.829 49.9773 147.782 47.7099 148.22C45.1273 148.719 42.9521 148.366 41.1613 147.151C40.5003 146.598 39.8931 145.799 39.3473 144.753C38.671 143.362 38.033 141.225 37.4258 138.343C36.6726 134.754 36.0116 129.419 35.4582 126.522C34.359 120.734 33.7672 117.66 33.6903 117.306C33.2522 115.231 32.3453 113.863 30.9695 113.194C29.586 112.533 27.4569 112.502 24.5823 113.125C21.4848 113.801 19.5017 114.7 18.6332 115.8C17.757 116.899 17.5802 118.536 18.0798 120.696C18.81 123.816 19.5325 126.806 20.255 129.665C21.6923 135.384 23.8444 143.439 24.0289 144.246C24.6899 147.113 24.982 149.334 24.8974 150.887C24.859 154.346 22.8375 156.528 18.8177 157.489C16.5733 158.027 14.6134 157.873 12.9301 157.013C11.2468 156.159 9.95556 154.645 9.06397 152.47C7.64203 149.096 4.54452 138.558 2.4462 130.449V130.457Z" fill="#727EFC"/>
<path d="M77.0109 142.271C76.1347 136.498 71.9919 111.68 70.9389 109.066C69.7552 105.116 66.9036 103.486 62.4303 104.216C57.9493 104.947 55.7972 107.406 55.9663 111.518C55.8356 114.331 59.9631 139.15 60.9776 144.899C62.0537 150.964 63.1297 155.383 64.1981 158.189C65.4279 162.124 68.1027 163.723 72.2686 163.038C76.3269 162.37 78.3022 160.01 78.2023 155.898C78.3252 152.9 77.9256 148.358 76.9955 142.278L77.0109 142.271Z" fill="#727EFC"/>
<path d="M78.8344 133.123C78.3579 129.903 79.3033 128.112 81.686 127.774C82.3854 127.674 84.2301 128.012 87.2046 128.811C89.8948 129.603 92.3928 129.849 94.714 129.565C96.1129 129.396 97.2427 128.973 98.0959 128.296C98.949 127.628 99.3103 126.775 99.195 125.745C98.926 123.485 97.212 122.54 94.053 122.924C93.3458 123.008 92.2852 123.17 90.8786 123.4C89.472 123.631 88.6573 123.769 88.4421 123.792C87.2969 123.946 86.4514 123.731 85.9057 123.154C85.3523 122.578 84.9756 121.548 84.7681 120.065C84.5683 118.635 84.6451 117.567 84.9987 116.867C85.3523 116.168 86.1055 115.737 87.2584 115.591C87.4198 115.568 88.1731 115.499 89.4951 115.376C90.8248 115.261 91.8163 115.161 92.4773 115.076C95.3366 114.723 96.6432 113.455 96.3742 111.249C96.1436 109.296 94.468 108.505 91.3551 108.889C89.9101 109.066 88.027 109.773 85.7135 111.018C83.0311 112.417 81.3324 113.178 80.6176 113.278C79.4032 113.447 78.3809 113.193 77.5431 112.501C76.7054 111.81 76.175 110.726 75.9598 109.243C75.4525 105.868 77.2203 103.363 81.2863 101.756C84.2147 100.626 88.2423 99.7271 93.3689 99.1122C98.1574 98.5357 102.369 98.9123 105.974 100.204C109.525 101.503 111.462 104.024 111.831 107.721C112.177 111.272 110.524 114.385 106.927 117.098C112.023 118.543 114.736 121.256 115.105 125.168C115.305 127.282 114.967 129.15 114.091 130.794C113.215 132.439 111.969 133.777 110.348 134.83C108.726 135.883 106.966 136.713 105.06 137.343C103.153 137.966 101.14 138.404 99.0105 138.657C93.684 139.288 89.3183 139.403 85.8903 138.934C81.686 138.365 79.334 136.451 78.8344 133.123Z" fill="#727EFC"/>
<path d="M118.094 116.253C117.517 109.873 117.371 105.577 117.686 103.371C117.878 99.2586 120.492 96.9681 125.526 96.5838C130.73 96.1918 133.474 98.0672 133.743 102.141C133.85 103.763 133.965 105.392 134.073 107.014C134.211 109.028 135.195 109.973 137.025 109.858C139.492 109.704 141.959 109.566 144.434 109.435C146.263 109.343 147.132 108.29 147.032 106.276C146.663 98.7359 147.063 105.53 146.686 97.9904C146.586 95.9766 147.232 94.4163 148.631 93.3172C150.029 92.2181 152.005 91.6109 154.564 91.5187C159.614 91.3342 162.489 93.3095 163.173 97.3678C163.757 99.5276 163.811 107.229 163.972 113.639C164.149 120.565 164.026 125.115 163.596 127.298C163.157 131.394 160.613 133.5 155.955 133.669C153.596 133.754 151.728 133.324 150.337 132.347C148.946 131.379 148.2 129.888 148.1 127.874C148.008 125.991 147.916 124.108 147.824 122.225C147.724 120.211 146.771 119.25 144.964 119.342C142.528 119.465 140.091 119.611 137.662 119.758C135.856 119.873 135.018 120.941 135.157 122.947C135.28 124.83 135.41 126.713 135.533 128.597C135.802 132.67 133.474 134.861 128.554 135.237C123.797 135.606 120.976 133.815 120.069 129.788C119.393 127.667 118.739 123.162 118.109 116.26L118.094 116.253Z" fill="#727EFC"/>
<path d="M167.945 121.688C167.753 113.656 175.378 109.344 190.834 109.49C192.279 109.505 193.717 109.529 195.162 109.552C195.192 107.745 194.685 106.4 193.64 105.532C192.595 104.663 190.834 104.21 188.375 104.194C185.8 104.171 183.141 104.632 180.412 105.57C177.683 106.508 175.962 106.992 175.239 107C173.902 107.015 172.856 106.639 172.088 105.878C171.327 105.117 170.927 104.033 170.904 102.642C170.858 99.7979 172.426 97.6534 175.631 96.2238C179.29 94.5867 183.948 93.7719 189.558 93.8257C194.493 93.8719 198.736 94.6866 202.256 96.2238C206.837 98.2606 209.596 101.266 210.565 105.178C211.333 108.314 211.641 111.658 211.495 115.224C211.241 121.373 210.834 125.516 210.257 127.668C209.281 131.665 206.798 133.586 202.779 133.463C198.597 133.348 195.999 131.78 194.97 128.705C194.916 128.705 194.862 128.705 194.808 128.705C190.973 131.895 186.538 133.479 181.45 133.486C177.484 133.486 174.271 132.472 171.788 130.389C169.305 128.306 168.007 125.416 167.93 121.696L167.945 121.688ZM184.616 117.591C183.54 118.314 183.01 119.298 183.01 120.535C183.01 121.78 183.471 122.749 184.393 123.448C185.316 124.148 186.538 124.501 188.06 124.516C189.904 124.532 191.518 123.94 192.894 122.749C194.27 121.557 194.985 120.059 195.016 118.245C195.023 117.699 195.031 117.161 195.046 116.615C193.094 116.584 191.142 116.554 189.197 116.538C187.222 116.523 185.692 116.876 184.616 117.599V117.591Z" fill="#727EFC"/>
<path d="M262.663 104.409C262.44 102.364 261.787 100.835 260.703 99.8356C259.612 98.8364 257.913 98.2138 255.6 97.9909C252.556 97.6912 249.236 99.2284 245.723 102.61C243.848 104.317 241.995 106.031 240.143 107.752C239.244 108.536 238.344 109.328 237.445 110.112C236.73 110.758 236.008 111.403 235.293 112.057C233.848 113.609 232.849 114.37 232.303 114.332C231.527 114.278 231.181 113.663 231.265 112.472C231.265 112.418 231.273 112.333 231.281 112.203C231.296 112.072 231.319 111.895 231.365 111.665C231.404 111.434 231.45 111.173 231.496 110.896C231.542 110.612 231.611 110.258 231.696 109.82C231.78 109.389 231.865 108.967 231.949 108.552C232.411 105.892 232.687 103.994 232.764 102.856C233.087 98.3752 230.866 95.9618 226.108 95.6774C220.958 95.3776 217.83 97.1301 216.762 100.858C216.154 103.002 215.701 107.36 215.393 113.909C215.086 120.727 215.109 125.492 215.47 128.197C216.054 132.056 218.422 134.07 222.595 134.308C224.901 134.439 227.807 132.909 231.388 129.735C232.526 128.62 233.663 127.506 234.809 126.399C236.369 124.854 237.937 123.317 239.513 121.78C239.989 121.326 240.466 120.873 240.942 120.419C241.426 119.966 241.903 119.512 242.379 119.059C242.741 118.728 243.102 118.39 243.463 118.059C244.232 117.445 244.808 117.16 245.193 117.199C245.961 117.26 246.292 117.913 246.176 119.151C246.153 119.405 245.877 120.627 245.354 122.809C244.824 125 242.756 146.783 242.625 148.327C242.195 153.27 244.216 155.929 248.674 156.352C251.219 156.598 253.163 156.375 254.531 155.66C255.892 154.945 256.868 153.562 257.467 151.494C258.29 148.666 261.295 124.101 262.041 117.521C262.717 111.465 262.932 107.091 262.663 104.409Z" fill="#727EFC"/>
<path d="M254 88.3757C253.762 90.6355 252.417 92.4417 249.996 93.8098C247.652 95.1933 244.808 95.7391 241.449 95.47C238.044 95.201 235.308 94.2172 233.217 92.4878C231.088 90.72 230.073 88.7293 230.212 86.5003C230.281 85.309 230.727 84.3559 231.557 83.6488C232.387 82.9416 233.471 82.6342 234.816 82.7187C236.376 82.8187 237.537 83.8409 238.29 85.7701C238.974 88.0145 240.188 89.1982 241.956 89.3365C243.724 89.4749 245.115 88.491 246.153 86.385C247.067 84.5865 248.359 83.7564 250.011 83.9101C251.395 84.0331 252.44 84.5173 253.139 85.3397C253.839 86.1698 254.131 87.1844 254.008 88.3681L254 88.3757Z" fill="#727EFC"/>
<path d="M265.815 118.183C266.53 112.073 267.26 108.045 267.998 106.101C269.136 101.712 272.256 99.798 277.322 100.444C280.358 100.836 282.294 101.72 283.132 103.088C284.039 104.356 284.231 106.785 283.724 110.366C283.593 111.289 283.463 112.211 283.332 113.133C283.086 114.878 283.593 115.831 284.862 116.008C286.015 116.169 287.483 115.362 289.266 113.587C289.535 113.31 290.473 112.326 292.087 110.635C293.078 109.529 294.077 108.43 295.077 107.323C296.506 105.87 298.036 104.955 299.673 104.586C301.31 104.218 303.616 104.279 306.575 104.771C311.44 105.593 313.615 107.392 313.124 110.082C312.916 111.204 312.17 112.311 310.887 113.426C309.603 114.54 307.29 116.162 303.985 118.337C303.354 118.706 302.732 119.067 302.109 119.436C299.988 120.658 298.881 121.604 298.774 122.265C298.697 122.726 298.804 123.241 299.104 123.809C299.258 124.048 299.419 124.278 299.573 124.517C299.611 124.624 299.719 124.801 299.903 125.039C300.088 125.278 300.28 125.523 300.495 125.762C300.703 126.008 300.833 126.154 300.88 126.215C301.702 127.291 302.517 128.375 303.331 129.459C304.162 130.596 304.992 131.734 305.814 132.879C308.52 136.661 309.588 139.174 309.096 140.396C308.596 143.094 305.607 143.924 300.111 142.994C297.567 142.564 295.645 141.864 294.339 140.865C293.032 139.874 291.795 138.213 290.619 135.884C290.242 135.147 289.543 133.625 288.52 131.334C287.99 130.127 287.452 128.928 286.914 127.729C285.984 125.816 284.938 124.778 283.801 124.617C282.387 124.417 281.541 125.316 281.257 127.314C280.996 129.182 280.734 131.05 280.473 132.918C279.82 137.529 277.237 139.505 272.725 138.92C267.668 138.275 265.116 136.115 265.07 132.356C264.801 129.566 265.047 124.839 265.831 118.16L265.815 118.183Z" fill="#727EFC"/>
<path d="M315.757 125.468C316.972 119.019 321.429 97.0596 322.359 95.0228C323.974 91.4872 327.402 90.2036 332.582 91.2412C337.371 92.202 339.277 94.9152 338.316 99.3117C338.07 100.426 333.727 119.895 332.905 122.462C332.767 122.854 332.62 123.262 332.474 123.677C332.328 124.092 332.213 124.445 332.129 124.714C332.044 124.983 331.959 125.237 331.883 125.452C331.806 125.675 331.76 125.852 331.729 125.975C331.698 126.106 331.683 126.19 331.675 126.244C331.429 127.405 331.675 128.066 332.436 128.227C332.974 128.342 334.065 127.727 335.726 126.39C336.525 125.844 337.324 125.306 338.131 124.768C339.131 124.115 340.138 123.462 341.137 122.808C343.212 121.363 345.295 119.918 347.386 118.489C351.344 115.629 354.849 114.569 357.823 115.291C360.083 115.837 361.682 116.69 362.612 117.828C363.549 118.965 363.98 120.572 363.911 122.631C363.795 125.322 362.973 129.626 361.444 135.529C359.791 141.939 357.185 150.517 355.948 153.192C355.056 155.151 353.865 156.381 352.382 156.896C350.89 157.404 348.877 157.342 346.317 156.727C341.828 155.651 340.138 152.73 341.252 147.888C341.606 146.374 342.19 144.575 343.012 142.485C343.835 140.394 345.441 135.183 345.495 134.929C345.779 133.723 345.541 133.031 344.795 132.854C344.419 132.769 343.804 132.969 342.958 133.469C342.559 133.746 342.151 134.03 341.752 134.307C341.214 134.691 340.676 135.068 340.138 135.452C339.599 135.836 339.061 136.221 338.531 136.605C336.756 137.904 334.98 139.21 333.22 140.525C331.929 141.462 330.645 142.408 329.369 143.353C325.38 145.997 322.283 147.112 320.023 146.666C315.918 145.851 313.851 143.522 313.812 139.625C313.836 136.897 314.473 132.178 315.742 125.475L315.757 125.468Z" fill="#727EFC"/>
<path d="M58.1301 83.3479C53.2879 83.5631 51.1972 88.1978 50.8052 92.5636C50.3364 97.7363 56.8465 99.7655 60.9433 99.3504C65.5473 98.8816 69.1751 94.5235 68.8216 89.835C68.4373 84.693 62.3191 83.148 58.1378 83.3479C55.6398 83.4709 55.6245 87.3754 58.1378 87.2448C60.2515 87.1372 63.1722 87.1141 64.4712 89.2047C65.578 90.9956 64.0946 94.0777 62.3191 95.0385C60.5436 95.9993 56.7082 95.7303 55.3631 94.1777C53.7644 92.3176 56.0702 87.337 58.1378 87.2448C60.6358 87.1372 60.6512 83.2326 58.1378 83.3479H58.1301Z" fill="#727EFC"/>
<path d="M311.073 81.7719C308.89 81.2954 306.708 80.8188 304.525 80.35C303.28 80.081 301.688 79.42 300.443 80.0502C299.198 80.6805 299.114 82.0025 298.829 83.2246C298.299 85.5381 297.769 87.8517 297.238 90.1575C297.061 90.9338 297.346 91.9022 298.107 92.2866C302.111 94.3311 306.223 96.9059 310.481 98.3817C311.288 98.6584 312.18 98.1895 312.61 97.5131C313.64 95.9221 313.01 93.1628 312.941 91.3796C312.849 88.7817 312.726 86.1838 312.457 83.5935C312.211 81.2031 308.437 81.1801 308.683 83.5935C308.898 85.7072 309.021 87.8209 309.113 89.9423C309.152 90.8877 309.182 91.8408 309.213 92.7862C309.229 93.255 309.574 95.2611 309.344 95.607L311.473 94.7384C307.538 93.378 303.71 90.9184 299.998 89.0276L300.866 91.1567C301.089 90.1882 302.019 83.8856 302.503 83.7165C302.834 83.6012 305.063 84.316 305.701 84.4544C307.153 84.7695 308.614 85.0846 310.066 85.4075C312.434 85.9224 313.441 82.2869 311.066 81.7719H311.073Z" fill="#EF6936"/>
<path d="M216.154 141.823L213.218 149.156C212.634 150.616 211.081 152.899 211.696 154.551C212.119 155.681 213.141 155.996 214.233 156.042C216.5 156.142 219.113 155.489 221.312 155.028C223.51 154.567 228.905 154.059 227.345 150.493C225.693 146.719 221.896 143.768 218.944 141.085C217.361 139.648 214.994 142 216.585 143.445C218.383 145.082 220.305 146.604 221.857 148.487C222.357 149.094 222.803 149.74 223.248 150.378C223.41 150.608 223.564 150.839 223.725 151.069C223.948 151.6 224.086 151.538 224.155 150.877C223.287 151.538 220.996 151.692 219.967 151.9C218.491 152.192 216.562 152.099 215.193 152.614L214.24 152.699L214.978 153.698C215.109 153.713 215.831 151.569 215.893 151.408L219.382 142.699C220.182 140.709 216.954 139.84 216.162 141.815L216.154 141.823Z" fill="#F7CB62"/>
<path d="M362.973 111.964C365.197 111.964 367 110.161 367 107.937C367 105.712 365.197 103.909 362.973 103.909C360.748 103.909 358.945 105.712 358.945 107.937C358.945 110.161 360.748 111.964 362.973 111.964Z" fill="#F7CB62"/>
<path d="M88.6915 152.524C90.6569 152.524 92.2502 150.93 92.2502 148.965C92.2502 147 90.6569 145.406 88.6915 145.406C86.7261 145.406 85.1328 147 85.1328 148.965C85.1328 150.93 86.7261 152.524 88.6915 152.524Z" fill="#EF6936"/>
<path d="M270.195 91.7105C272.712 91.7105 274.752 89.6699 274.752 87.1526C274.752 84.6354 272.712 82.5947 270.195 82.5947C267.677 82.5947 265.637 84.6354 265.637 87.1526C265.637 89.6699 267.677 91.7105 270.195 91.7105Z" fill="#7BC1B9"/>
<path d="M175.013 0.031007C172.23 0.253905 169.617 1.62204 167.834 3.76647C165.743 6.27984 163.806 10.7147 166.12 17.7245C169.24 27.1861 183.652 22.8127 185.896 16.195C187.864 10.3919 183.721 -0.660745 175.013 0.031007Z" fill="#7BC1B9"/>
<path d="M153.566 19.7852C153.566 19.7852 183.211 49.4384 196.393 9.90086C201.581 -5.66358 216.1 10.9077 205.247 28.4168C197.315 41.2065 201.128 46.9096 204.548 53.3122C206.977 57.8624 211.934 70.1294 205.524 73.0041C199.114 75.8787 193.657 65.487 190.797 63.2196C187.938 60.9522 183.119 59.2305 180.736 65.7483C178.361 72.2662 176.217 79.3989 168.999 80.1829C161.782 80.9592 162.051 71.2132 163.55 65.4025C165.049 59.5917 171.013 50.9756 163.12 45.2802C155.226 39.577 141.452 30.7918 143.059 20.9612C144.665 11.1306 153.573 19.7852 153.573 19.7852H153.566Z" fill="#7BC1B9"/>
<path d="M274.766 39.6452L263.959 71.5273C263.513 72.8493 262.084 73.5564 260.762 73.1029L253.982 70.8048C252.66 70.359 251.953 68.9294 252.407 67.6074C253.045 65.7396 252.86 63.7873 252.046 62.1425C251.223 60.4746 249.763 59.1296 247.857 58.507C244.098 57.2772 240.063 59.4524 238.795 63.1955C238.38 64.4099 237.065 65.0633 235.843 64.6482L228.88 62.2886C227.557 61.8428 226.85 60.4131 227.304 59.0911L229.663 52.1275C230.079 50.9131 229.425 49.5987 228.211 49.1837H228.195C224.514 47.9308 222.346 44.0032 223.468 40.2831C224.644 36.3863 228.795 34.2726 232.615 35.5639L232.807 35.633C234.022 36.0481 235.336 35.3948 235.751 34.1803L238.111 27.2167C238.556 25.8947 239.986 25.1876 241.308 25.641L249.778 28.5157C250.162 28.6463 250.577 28.4388 250.708 28.0545L251.215 26.548C252.484 22.8049 256.519 20.6297 260.277 21.8595C262.184 22.482 263.652 23.8271 264.466 25.495C265.273 27.1322 265.458 29.0844 264.828 30.9599L264.251 32.6585C264.12 33.0428 264.328 33.4579 264.712 33.5885L273.182 36.4631C274.504 36.9089 275.212 38.3385 274.758 39.6606L274.766 39.6452Z" fill="#EF6936"/>
<path d="M122.588 51.9805C124.179 55.6007 128.399 57.2378 132.019 55.6545C133.295 55.0934 134.778 55.6698 135.34 56.9457L138.222 63.4943C138.783 64.7702 138.206 66.2537 136.931 66.8147L128.806 70.3888C128.399 70.5656 128.215 71.0421 128.391 71.4495L129.014 72.8637C130.574 76.4147 129.145 80.6575 125.647 82.3407C121.981 84.1086 117.608 82.4714 115.986 78.7744L115.294 77.1987C115.117 76.7914 114.641 76.6069 114.233 76.7837L106.109 80.3577C104.833 80.9188 103.35 80.3424 102.789 79.0665L89.2381 48.2527C88.677 46.9768 89.2535 45.4934 90.5294 44.9323L97.2317 41.9808C98.423 41.4582 99.8142 41.9962 100.337 43.1876C101.843 46.6079 105.702 48.4449 109.237 47.2458C113.265 45.8777 115.179 41.3967 113.503 37.5844C112.942 36.3085 113.519 34.825 114.795 34.2639L121.343 31.3816C122.619 30.8206 124.102 31.397 124.664 32.6729L128.56 41.535L126.247 42.5496C122.634 44.1406 120.99 48.3603 122.581 51.9728L122.588 51.9805Z" fill="#F7CB62"/>
</svg>
