<svg width="38" height="47" viewBox="0 0 38 47" fill="none" xmlns="http://www.w3.org/2000/svg">
<path d="M19 0.669922L0.25 9.00325V21.5033C0.25 33.0658 8.25 43.8783 19 46.5033C29.75 43.8783 37.75 33.0658 37.75 21.5033V9.00325L19 0.669922ZM19 17.1074C22.3333 17.1074 25.0208 19.7949 25.0208 23.1283C25.0208 26.4616 22.3333 29.1491 19 29.1491C15.6667 29.1491 12.9792 26.4408 12.9792 23.1283C12.9792 19.8158 15.6875 17.1074 19 17.1074ZM19 11.0866L21.875 15.2533C21 14.8783 20.0417 14.6908 19 14.6908C17.4375 14.6908 17.0208 14.8783 16.125 15.2533L19 11.0866ZM8.58333 17.1074L13.5833 16.6908C12.875 17.3366 12.2083 18.0449 11.7083 18.9199C11.1875 19.7949 10.875 20.7116 10.6667 21.6699L8.58333 17.1074ZM8.58333 29.1491L10.7292 24.6283C10.8958 25.5241 11.2292 26.4616 11.7083 27.3366C12.2292 28.2324 12.875 28.9824 13.5833 29.5866L8.58333 29.1491ZM29.4167 17.1074L27.3333 21.6699C27.125 20.7116 26.7917 19.7949 26.2917 18.9199C25.7917 18.0449 25.1458 17.3366 24.4167 16.6699L29.4167 17.1074ZM29.4167 29.1491L24.4167 29.5658C25.125 28.9616 25.7708 28.2116 26.2917 27.3366C26.7917 26.4616 27.1042 25.5241 27.2708 24.6283L29.4167 29.1491ZM19 35.1491L16.1042 31.0241C17 31.3366 17.9583 31.5449 19 31.5449C20.0417 31.5449 20.9792 31.3366 21.8542 31.0241L19 35.1491Z" fill="url(#paint0_linear_146_1310)"/>
<defs>
<linearGradient id="paint0_linear_146_1310" x1="19" y1="0.669922" x2="19" y2="46.5033" gradientUnits="userSpaceOnUse">
<stop stop-color="#C5CAFF"/>
<stop offset="1" stop-color="#A4A9E2"/>
</linearGradient>
</defs>
</svg>
