<svg width="44" height="45" viewBox="0 0 44 45" fill="none" xmlns="http://www.w3.org/2000/svg">
<path d="M38.7096 21.5033H35.5846V13.1699C35.5846 12.0649 35.1456 11.005 34.3642 10.2236C33.5828 9.44224 32.523 9.00325 31.418 9.00325H23.0846V5.87825C23.0846 4.49692 22.5359 3.17216 21.5591 2.19541C20.5824 1.21866 19.2576 0.669922 17.8763 0.669922C16.495 0.669922 15.1702 1.21866 14.1935 2.19541C13.2167 3.17216 12.668 4.49692 12.668 5.87825V9.00325H4.33464C3.22957 9.00325 2.16976 9.44224 1.38836 10.2236C0.606955 11.005 0.167969 12.0649 0.167969 13.1699V21.0866H3.29297C6.41797 21.0866 8.91797 23.5866 8.91797 26.7116C8.91797 29.8366 6.41797 32.3366 3.29297 32.3366H0.167969V40.2533C0.167969 41.3583 0.606955 42.4181 1.38836 43.1995C2.16976 43.9809 3.22957 44.4199 4.33464 44.4199H12.2513V41.2949C12.2513 38.1699 14.7513 35.6699 17.8763 35.6699C21.0013 35.6699 23.5013 38.1699 23.5013 41.2949V44.4199H31.418C32.523 44.4199 33.5828 43.9809 34.3642 43.1995C35.1456 42.4181 35.5846 41.3583 35.5846 40.2533V31.9199H38.7096C40.091 31.9199 41.4157 31.3712 42.3925 30.3944C43.3692 29.4177 43.918 28.0929 43.918 26.7116C43.918 25.3303 43.3692 24.0055 42.3925 23.0287C41.4157 22.052 40.091 21.5033 38.7096 21.5033Z" fill="white"/>
<path d="M38.7096 21.5033H35.5846V13.1699C35.5846 12.0649 35.1456 11.005 34.3642 10.2236C33.5828 9.44224 32.523 9.00325 31.418 9.00325H23.0846V5.87825C23.0846 4.49692 22.5359 3.17216 21.5591 2.19541C20.5824 1.21866 19.2576 0.669922 17.8763 0.669922C16.495 0.669922 15.1702 1.21866 14.1935 2.19541C13.2167 3.17216 12.668 4.49692 12.668 5.87825V9.00325H4.33464C3.22957 9.00325 2.16976 9.44224 1.38836 10.2236C0.606955 11.005 0.167969 12.0649 0.167969 13.1699V21.0866H3.29297C6.41797 21.0866 8.91797 23.5866 8.91797 26.7116C8.91797 29.8366 6.41797 32.3366 3.29297 32.3366H0.167969V40.2533C0.167969 41.3583 0.606955 42.4181 1.38836 43.1995C2.16976 43.9809 3.22957 44.4199 4.33464 44.4199H12.2513V41.2949C12.2513 38.1699 14.7513 35.6699 17.8763 35.6699C21.0013 35.6699 23.5013 38.1699 23.5013 41.2949V44.4199H31.418C32.523 44.4199 33.5828 43.9809 34.3642 43.1995C35.1456 42.4181 35.5846 41.3583 35.5846 40.2533V31.9199H38.7096C40.091 31.9199 41.4157 31.3712 42.3925 30.3944C43.3692 29.4177 43.918 28.0929 43.918 26.7116C43.918 25.3303 43.3692 24.0055 42.3925 23.0287C41.4157 22.052 40.091 21.5033 38.7096 21.5033Z" fill="url(#paint0_linear_146_1323)"/>
<defs>
<linearGradient id="paint0_linear_146_1323" x1="22.043" y1="0.669922" x2="22.043" y2="44.4199" gradientUnits="userSpaceOnUse">
<stop stop-color="#C5CAFF"/>
<stop offset="1" stop-color="#A4A9E2"/>
</linearGradient>
</defs>
</svg>
