<svg width="39" height="47" viewBox="0 0 39 47" fill="none" xmlns="http://www.w3.org/2000/svg">
<path fill-rule="evenodd" clip-rule="evenodd" d="M13.5417 0.58667C12.7667 0.58667 12.0558 1.01683 11.6962 1.70332L0.237852 23.5783C-0.100425 24.2241 -0.0765165 24.9998 0.300893 25.6235C0.678302 26.2473 1.3543 26.6283 2.08333 26.6283H13.9642L9.44359 43.8065C9.20012 44.7317 9.61807 45.7038 10.457 46.1636C11.296 46.6234 12.3403 46.4527 12.9892 45.7498L37.9892 18.6664C38.5504 18.0584 38.6987 17.1758 38.3668 16.4178C38.0349 15.6597 37.2858 15.17 36.4583 15.17H25.1197L33.9298 3.95713C34.4226 3.33001 34.514 2.47661 34.1654 1.7593C33.8168 1.04199 33.0892 0.58667 32.2917 0.58667H13.5417Z" fill="white"/>
<path fill-rule="evenodd" clip-rule="evenodd" d="M13.5417 0.58667C12.7667 0.58667 12.0558 1.01683 11.6962 1.70332L0.237852 23.5783C-0.100425 24.2241 -0.0765165 24.9998 0.300893 25.6235C0.678302 26.2473 1.3543 26.6283 2.08333 26.6283H13.9642L9.44359 43.8065C9.20012 44.7317 9.61807 45.7038 10.457 46.1636C11.296 46.6234 12.3403 46.4527 12.9892 45.7498L37.9892 18.6664C38.5504 18.0584 38.6987 17.1758 38.3668 16.4178C38.0349 15.6597 37.2858 15.17 36.4583 15.17H25.1197L33.9298 3.95713C34.4226 3.33001 34.514 2.47661 34.1654 1.7593C33.8168 1.04199 33.0892 0.58667 32.2917 0.58667H13.5417Z" fill="url(#paint0_linear_146_1329)"/>
<defs>
<linearGradient id="paint0_linear_146_1329" x1="19.2709" y1="0.58667" x2="19.2709" y2="46.4201" gradientUnits="userSpaceOnUse">
<stop stop-color="#C5CAFF"/>
<stop offset="1" stop-color="#A4A9E2"/>
</linearGradient>
</defs>
</svg>
