<svg width="42" height="45" viewBox="0 0 42 45" fill="none" xmlns="http://www.w3.org/2000/svg">
<path d="M10.0417 31.8367L18.75 36.5867V42.2533H4.16667C1.85417 42.2533 0 40.3992 0 38.0867V4.75334C0 3.64827 0.438987 2.58846 1.22039 1.80706C2.00179 1.02566 3.0616 0.58667 4.16667 0.58667H6.25V15.17L11.4583 12.045L16.6667 15.17V0.58667H29.1667C30.2717 0.58667 31.3315 1.02566 32.1129 1.80706C32.8943 2.58846 33.3333 3.64827 33.3333 4.75334V22.545L30.2083 20.8367L10.0417 31.8367ZM41.6667 31.8367L30.2083 25.5867L18.75 31.8367L30.2083 38.0867L41.6667 31.8367ZM22.9167 36.1908V40.3575L30.2083 44.3367L37.5 40.3575V36.1908L30.2083 40.17L22.9167 36.1908Z" fill="white"/>
<path d="M10.0417 31.8367L18.75 36.5867V42.2533H4.16667C1.85417 42.2533 0 40.3992 0 38.0867V4.75334C0 3.64827 0.438987 2.58846 1.22039 1.80706C2.00179 1.02566 3.0616 0.58667 4.16667 0.58667H6.25V15.17L11.4583 12.045L16.6667 15.17V0.58667H29.1667C30.2717 0.58667 31.3315 1.02566 32.1129 1.80706C32.8943 2.58846 33.3333 3.64827 33.3333 4.75334V22.545L30.2083 20.8367L10.0417 31.8367ZM41.6667 31.8367L30.2083 25.5867L18.75 31.8367L30.2083 38.0867L41.6667 31.8367ZM22.9167 36.1908V40.3575L30.2083 44.3367L37.5 40.3575V36.1908L30.2083 40.17L22.9167 36.1908Z" fill="url(#paint0_linear_146_1337)"/>
<defs>
<linearGradient id="paint0_linear_146_1337" x1="20.8333" y1="0.58667" x2="20.8333" y2="44.3367" gradientUnits="userSpaceOnUse">
<stop stop-color="#C5CAFF"/>
<stop offset="1" stop-color="#A4A9E2"/>
</linearGradient>
</defs>
</svg>
