<svg width="42" height="43" viewBox="0 0 42 43" fill="none" xmlns="http://www.w3.org/2000/svg">
<path d="M37.8424 22.9514C39.2278 21.5678 40.2846 19.8905 40.9343 18.0434C41.5841 16.1963 41.8104 14.2268 41.5964 12.2806C41.3823 10.3343 40.7335 8.461 39.6978 6.7993C38.6622 5.13759 37.2662 3.72997 35.6132 2.68054C31.4257 -0.0902951 25.8215 -0.111128 21.5924 2.61804C17.9257 4.9722 15.9049 8.63887 15.5507 12.4305C15.2799 15.1805 14.2382 17.743 12.3215 19.6597L12.259 19.7222C9.84235 22.1389 9.84235 25.8264 12.1132 28.0764L14.1757 30.1389C15.2672 31.2297 16.7472 31.8424 18.2903 31.8424C19.8334 31.8424 21.3133 31.2297 22.4049 30.1389C24.4257 28.118 27.0923 27.0139 29.9882 26.7014C32.8423 26.3889 35.634 25.1389 37.8424 22.9514ZM8.88402 37.8055C9.44652 38.9722 9.25902 40.3889 8.27985 41.3472C7.85578 41.7777 7.31528 42.075 6.72466 42.2027C6.13404 42.3305 5.51899 42.283 4.95493 42.0663C4.39088 41.8495 3.90236 41.4728 3.5493 40.9824C3.19624 40.492 2.99399 39.9092 2.96735 39.3055C2.36367 39.2789 1.78088 39.0766 1.29048 38.7236C0.800078 38.3705 0.423387 37.882 0.206614 37.318C-0.0101587 36.7539 -0.0575884 36.1388 0.0701431 35.5482C0.197875 34.9576 0.495213 34.4171 0.925686 33.993C1.88402 33.0347 3.32152 32.8264 4.46735 33.3889L9.63402 28.3264C9.92569 28.7222 10.259 29.1805 10.634 29.5555L12.6965 31.618C13.134 32.0347 13.5507 32.3889 14.0924 32.7014L8.88402 37.8055Z" fill="white"/>
<path d="M37.8424 22.9514C39.2278 21.5678 40.2846 19.8905 40.9343 18.0434C41.5841 16.1963 41.8104 14.2268 41.5964 12.2806C41.3823 10.3343 40.7335 8.461 39.6978 6.7993C38.6622 5.13759 37.2662 3.72997 35.6132 2.68054C31.4257 -0.0902951 25.8215 -0.111128 21.5924 2.61804C17.9257 4.9722 15.9049 8.63887 15.5507 12.4305C15.2799 15.1805 14.2382 17.743 12.3215 19.6597L12.259 19.7222C9.84235 22.1389 9.84235 25.8264 12.1132 28.0764L14.1757 30.1389C15.2672 31.2297 16.7472 31.8424 18.2903 31.8424C19.8334 31.8424 21.3133 31.2297 22.4049 30.1389C24.4257 28.118 27.0923 27.0139 29.9882 26.7014C32.8423 26.3889 35.634 25.1389 37.8424 22.9514ZM8.88402 37.8055C9.44652 38.9722 9.25902 40.3889 8.27985 41.3472C7.85578 41.7777 7.31528 42.075 6.72466 42.2027C6.13404 42.3305 5.51899 42.283 4.95493 42.0663C4.39088 41.8495 3.90236 41.4728 3.5493 40.9824C3.19624 40.492 2.99399 39.9092 2.96735 39.3055C2.36367 39.2789 1.78088 39.0766 1.29048 38.7236C0.800078 38.3705 0.423387 37.882 0.206614 37.318C-0.0101587 36.7539 -0.0575884 36.1388 0.0701431 35.5482C0.197875 34.9576 0.495213 34.4171 0.925686 33.993C1.88402 33.0347 3.32152 32.8264 4.46735 33.3889L9.63402 28.3264C9.92569 28.7222 10.259 29.1805 10.634 29.5555L12.6965 31.618C13.134 32.0347 13.5507 32.3889 14.0924 32.7014L8.88402 37.8055Z" fill="url(#paint0_linear_146_1316)"/>
<defs>
<linearGradient id="paint0_linear_146_1316" x1="20.8373" y1="0.58667" x2="20.8373" y2="42.2729" gradientUnits="userSpaceOnUse">
<stop stop-color="#C5CAFF"/>
<stop offset="1" stop-color="#A4A9E2"/>
</linearGradient>
</defs>
</svg>
