<svg width="51" height="51" viewBox="0 0 51 51" fill="none" xmlns="http://www.w3.org/2000/svg">
<path fill-rule="evenodd" clip-rule="evenodd" d="M25.5 51C39.584 51 51 39.5835 51 25.5C51 11.4165 39.584 0 25.5 0C11.416 0 0 11.4165 0 25.5C0 39.5835 11.416 51 25.5 51ZM28.1855 36.3105L37.9355 26.5605C38.5215 25.9751 38.5215 25.0249 37.9355 24.4395L28.1855 14.6895C27.8066 14.3101 27.2734 14.1763 26.7871 14.2881C26.5234 14.3491 26.2715 14.4829 26.0645 14.6895C25.7129 15.041 25.5723 15.5244 25.6426 15.981C25.6895 16.2847 25.8301 16.5767 26.0645 16.8105L33.2539 24H14.125C13.2969 24 12.625 24.6714 12.625 25.5C12.625 26.3286 13.2969 27 14.125 27H33.2539L26.0645 34.1895C25.4785 34.7749 25.4785 35.7251 26.0645 36.3105C26.6504 36.8965 27.5996 36.8965 28.1855 36.3105Z" fill="white"/>
</svg>
