<svg width="34" height="31" viewBox="0 0 34 31" fill="none" xmlns="http://www.w3.org/2000/svg">
<path d="M13.8319 0.826368C4.71791 1.22839 0.782961 9.88611 0.0451575 18.0413C-0.837313 27.7041 11.416 31.4945 19.1268 30.7192C27.7923 29.8434 34.6206 21.7025 33.9552 12.9443C33.2318 3.33897 21.7163 0.453066 13.8464 0.826368C9.14473 1.05609 9.1158 8.34984 13.8464 8.10575C17.8248 7.90474 23.3221 7.86166 25.767 11.767C27.8502 15.1123 25.0581 20.8698 21.7163 22.6645C18.3745 24.4592 11.1556 23.9567 8.62393 21.0565C5.61485 17.5819 9.95487 8.27805 13.8464 8.10575C18.5481 7.90474 18.577 0.611001 13.8464 0.826368H13.8319Z" fill="#F7CB62"/>
</svg>
