<svg width="21" height="21" viewBox="0 0 21 21" fill="none" xmlns="http://www.w3.org/2000/svg">
<path d="M11.5701 0.0839844C12.742 0.0871094 13.3368 0.0933594 13.8503 0.107943L14.0524 0.115234C14.2857 0.123568 14.516 0.133984 14.7941 0.146484C15.9024 0.198568 16.6587 0.373568 17.3222 0.630859C18.0097 0.895443 18.5889 1.25378 19.168 1.8319C19.6979 2.35246 20.1078 2.98239 20.3691 3.67773C20.6264 4.34128 20.8014 5.09753 20.8535 6.2069C20.866 6.48398 20.8764 6.71419 20.8847 6.94857L20.891 7.15065C20.9066 7.66315 20.9128 8.25794 20.9149 9.42982L20.916 10.2069V11.5715C20.9185 12.3313 20.9105 13.0911 20.892 13.8506L20.8857 14.0527C20.8774 14.2871 20.867 14.5173 20.8545 14.7944C20.8024 15.9038 20.6253 16.659 20.3691 17.3236C20.1078 18.0189 19.6979 18.6488 19.168 19.1694C18.6475 19.6993 18.0175 20.1092 17.3222 20.3704C16.6587 20.6277 15.9024 20.8027 14.7941 20.8548L14.0524 20.8861L13.8503 20.8923C13.3368 20.9069 12.742 20.9142 11.5701 20.9163L10.793 20.9173H9.4295C8.66935 20.92 7.90921 20.912 7.14929 20.8934L6.94721 20.8871C6.69993 20.8777 6.4527 20.867 6.20554 20.8548C5.09721 20.8027 4.34096 20.6277 3.67637 20.3704C2.98141 20.109 2.35184 19.6992 1.83158 19.1694C1.30132 18.6489 0.891071 18.019 0.629499 17.3236C0.372207 16.66 0.197207 15.9038 0.145124 14.7944L0.113874 14.0527L0.108666 13.8506C0.0894635 13.0911 0.080782 12.3313 0.0826237 11.5715V9.42982C0.0797405 8.67003 0.0873802 7.91023 0.10554 7.15065L0.112832 6.94857C0.121165 6.71419 0.131582 6.48398 0.144082 6.2069C0.196165 5.09753 0.371165 4.34232 0.628457 3.67773C0.890639 2.98211 1.30161 2.35215 1.83262 1.8319C2.35258 1.30226 2.98178 0.892394 3.67637 0.630859C4.34096 0.373568 5.09617 0.198568 6.20554 0.146484C6.48262 0.133984 6.71387 0.123568 6.94721 0.115234L7.14929 0.108984C7.90887 0.0904768 8.66866 0.0824899 9.42846 0.085026L11.5701 0.0839844ZM10.4993 5.29232C9.11796 5.29232 7.7932 5.84105 6.81644 6.8178C5.83969 7.79455 5.29096 9.11932 5.29096 10.5007C5.29096 11.882 5.83969 13.2067 6.81644 14.1835C7.7932 15.1603 9.11796 15.709 10.4993 15.709C11.8806 15.709 13.2054 15.1603 14.1821 14.1835C15.1589 13.2067 15.7076 11.882 15.7076 10.5007C15.7076 9.11932 15.1589 7.79455 14.1821 6.8178C13.2054 5.84105 11.8806 5.29232 10.4993 5.29232ZM10.4993 7.37565C10.9097 7.37558 11.316 7.45635 11.6952 7.61333C12.0744 7.77031 12.4189 8.00044 12.7092 8.29057C12.9994 8.58071 13.2296 8.92517 13.3867 9.30428C13.5438 9.6834 13.6247 10.0897 13.6248 10.5001C13.6249 10.9105 13.5441 11.3169 13.3871 11.6961C13.2302 12.0752 13 12.4198 12.7099 12.71C12.4198 13.0002 12.0753 13.2305 11.6962 13.3876C11.3171 13.5447 10.9107 13.6256 10.5003 13.6257C9.67153 13.6257 8.87668 13.2964 8.29062 12.7104C7.70457 12.1243 7.37533 11.3295 7.37533 10.5007C7.37533 9.67185 7.70457 8.87699 8.29062 8.29094C8.87668 7.70489 9.67153 7.37565 10.5003 7.37565M15.9691 3.72982C15.6237 3.72982 15.2926 3.867 15.0484 4.11119C14.8042 4.35538 14.667 4.68657 14.667 5.0319C14.667 5.37723 14.8042 5.70842 15.0484 5.95261C15.2926 6.1968 15.6237 6.33398 15.9691 6.33398C16.3144 6.33398 16.6456 6.1968 16.8898 5.95261C17.134 5.70842 17.2712 5.37723 17.2712 5.0319C17.2712 4.68657 17.134 4.35538 16.8898 4.11119C16.6456 3.867 16.3144 3.72982 15.9691 3.72982Z" fill="white"/>
</svg>
