<svg width="37" height="37" viewBox="0 0 37 37" fill="none" xmlns="http://www.w3.org/2000/svg">
<path d="M6.81844 30.1823C6.01544 30.1823 5.32826 29.8966 4.75692 29.3252C4.18557 28.7539 3.89941 28.0662 3.89844 27.2623V9.74227C3.89844 8.93927 4.1846 8.25209 4.75692 7.68075C5.32924 7.1094 6.01641 6.82324 6.81844 6.82227H30.1784C30.9814 6.82227 31.6691 7.10843 32.2414 7.68075C32.8137 8.25307 33.0994 8.94024 33.0984 9.74227V27.2623C33.0984 28.0653 32.8128 28.7529 32.2414 29.3252C31.6701 29.8976 30.9824 30.1832 30.1784 30.1823H6.81844ZM18.4984 19.9623L30.1784 12.6623V9.74227L18.4984 17.0423L6.81844 9.74227V12.6623L18.4984 19.9623Z" fill="#727EFC"/>
<path d="M6.81844 30.1823C6.01544 30.1823 5.32826 29.8966 4.75692 29.3252C4.18557 28.7539 3.89941 28.0662 3.89844 27.2623V9.74227C3.89844 8.93927 4.1846 8.25209 4.75692 7.68075C5.32924 7.1094 6.01641 6.82324 6.81844 6.82227H30.1784C30.9814 6.82227 31.6691 7.10843 32.2414 7.68075C32.8137 8.25307 33.0994 8.94024 33.0984 9.74227V27.2623C33.0984 28.0653 32.8128 28.7529 32.2414 29.3252C31.6701 29.8976 30.9824 30.1832 30.1784 30.1823H6.81844ZM18.4984 19.9623L30.1784 12.6623V9.74227L18.4984 17.0423L6.81844 9.74227V12.6623L18.4984 19.9623Z" fill="url(#paint0_linear_146_716)"/>
<defs>
<linearGradient id="paint0_linear_146_716" x1="18.4984" y1="6.82227" x2="18.4984" y2="30.1823" gradientUnits="userSpaceOnUse">
<stop stop-color="#C5CAFF"/>
<stop offset="1" stop-color="#A4A9E2"/>
</linearGradient>
</defs>
</svg>
