<svg width="23" height="19" viewBox="0 0 23 19" fill="none" xmlns="http://www.w3.org/2000/svg">
<path d="M2.7 18.3012C2.095 18.3012 1.57727 18.0859 1.1468 17.6555C0.716333 17.225 0.500733 16.7069 0.5 16.1012V2.90117C0.5 2.29617 0.7156 1.77844 1.1468 1.34797C1.578 0.917505 2.09573 0.701905 2.7 0.701172H20.3C20.905 0.701172 21.4231 0.916772 21.8543 1.34797C22.2855 1.77917 22.5007 2.29691 22.5 2.90117V16.1012C22.5 16.7062 22.2848 17.2243 21.8543 17.6555C21.4238 18.0867 20.9057 18.3019 20.3 18.3012H2.7ZM11.5 10.6012L20.3 5.10117V2.90117L11.5 8.40117L2.7 2.90117V5.10117L11.5 10.6012Z" fill="#727EFC"/>
</svg>
