<svg width="31" height="31" viewBox="0 0 31 31" fill="none" xmlns="http://www.w3.org/2000/svg">
<path d="M10.3025 2.30556C9.86335 1.24483 8.70567 0.680241 7.59931 0.982493L2.58079 2.35118C1.58849 2.62492 0.898438 3.52597 0.898438 4.55249C0.898438 18.6614 12.3384 30.1014 26.4473 30.1014C27.4738 30.1014 28.3749 29.4113 28.6486 28.419L30.0173 23.4005C30.3196 22.2941 29.755 21.1365 28.6942 20.6973L23.2195 18.4162C22.2899 18.0284 21.2121 18.2964 20.5791 19.0777L18.2751 21.8892C14.2603 19.9902 11.0096 16.7395 9.11057 12.7247L11.9221 10.4265C12.7034 9.78773 12.9714 8.71559 12.5836 7.78602L10.3025 2.31126V2.30556Z" fill="#727EFC"/>
<path d="M10.3025 2.30556C9.86335 1.24483 8.70567 0.680241 7.59931 0.982493L2.58079 2.35118C1.58849 2.62492 0.898438 3.52597 0.898438 4.55249C0.898438 18.6614 12.3384 30.1014 26.4473 30.1014C27.4738 30.1014 28.3749 29.4113 28.6486 28.419L30.0173 23.4005C30.3196 22.2941 29.755 21.1365 28.6942 20.6973L23.2195 18.4162C22.2899 18.0284 21.2121 18.2964 20.5791 19.0777L18.2751 21.8892C14.2603 19.9902 11.0096 16.7395 9.11057 12.7247L11.9221 10.4265C12.7034 9.78773 12.9714 8.71559 12.5836 7.78602L10.3025 2.31126V2.30556Z" fill="url(#paint0_linear_146_709)"/>
<defs>
<linearGradient id="paint0_linear_146_709" x1="15.4984" y1="0.901367" x2="15.4984" y2="30.1014" gradientUnits="userSpaceOnUse">
<stop stop-color="#C5CAFF"/>
<stop offset="1" stop-color="#A4A9E2"/>
</linearGradient>
</defs>
</svg>
