<svg width="23" height="23" viewBox="0 0 23 23" fill="none" xmlns="http://www.w3.org/2000/svg">
<path d="M7.58523 1.55893C7.25439 0.759747 6.38216 0.334375 5.54861 0.562099L1.76752 1.5933C1.0199 1.79954 0.5 2.47842 0.5 3.25182C0.5 13.8818 9.11915 22.501 19.7492 22.501C20.5226 22.501 21.2014 21.9811 21.4077 21.2335L22.4389 17.4524C22.6666 16.6188 22.2412 15.7466 21.442 15.4157L17.3172 13.6971C16.6169 13.4049 15.8048 13.6068 15.3279 14.1955L13.592 16.3138C10.5671 14.883 8.11802 12.4338 6.68723 9.40898L8.80549 7.67741C9.39414 7.19618 9.59608 6.3884 9.30391 5.68805L7.58523 1.56323V1.55893Z" fill="#727EFC"/>
</svg>
