<svg width="12" height="16" viewBox="0 0 12 16" fill="none" xmlns="http://www.w3.org/2000/svg">
<path fill-rule="evenodd" clip-rule="evenodd" d="M6 0.5C2.6865 0.5 0 3.50225 0 6.875C0 10.2215 1.91475 13.859 4.90275 15.2555C5.24619 15.4163 5.62078 15.4997 6 15.4997C6.37922 15.4997 6.75381 15.4163 7.09725 15.2555C10.0852 13.859 12 10.2215 12 6.875C12 3.50225 9.3135 0.5 6 0.5ZM6 8C6.39782 8 6.77936 7.84196 7.06066 7.56066C7.34196 7.27936 7.5 6.89782 7.5 6.5C7.5 6.10218 7.34196 5.72064 7.06066 5.43934C6.77936 5.15804 6.39782 5 6 5C5.60218 5 5.22064 5.15804 4.93934 5.43934C4.65804 5.72064 4.5 6.10218 4.5 6.5C4.5 6.89782 4.65804 7.27936 4.93934 7.56066C5.22064 7.84196 5.60218 8 6 8Z" fill="#646464"/>
</svg>
