<svg width="91" height="97" viewBox="0 0 91 97" fill="none" xmlns="http://www.w3.org/2000/svg">
<path d="M61.8136 39.0916C64.7436 45.7895 72.5147 48.8185 79.1817 45.889C81.5314 44.8509 84.2633 45.9174 85.2966 48.2781L90.6047 60.3939C91.638 62.7545 90.5764 65.4991 88.2267 66.5372L73.2649 73.1497C72.5147 73.4768 72.175 74.3585 72.5005 75.1122L73.6471 77.7288C76.5205 84.2986 73.8877 92.1483 67.4472 95.2626C60.6953 98.5333 52.6412 95.5044 49.6545 88.6643L48.3805 85.7491C48.055 84.9954 47.1774 84.6541 46.4272 84.9812L31.4654 91.5938C29.1157 92.6318 26.3838 91.5653 25.3505 89.2047L0.395312 32.1947C-0.637998 29.8341 0.423622 27.0895 2.77334 26.0514L15.1164 20.5907C17.3105 19.6237 19.8725 20.6192 20.835 22.8233C23.6094 29.1515 30.7152 32.5502 37.2265 30.3318C44.6436 27.8005 48.1682 19.51 45.0824 12.4566C44.0491 10.096 45.1107 7.35143 47.4605 6.31333L59.5205 0.98064C61.8702 -0.0574572 64.6021 1.00908 65.6354 3.36968L72.812 19.7659L68.5513 21.643C61.8985 24.5867 58.8693 32.3938 61.7994 39.0774L61.8136 39.0916Z" fill="#80ECE0"/>
</svg>
