<svg width="96" height="97" viewBox="0 0 96 97" fill="none" xmlns="http://www.w3.org/2000/svg">
<path d="M95.7595 33.6743L75.702 92.8897C74.8745 95.3452 72.2211 96.6585 69.7674 95.8163L57.1852 91.5478C54.7315 90.7199 53.419 88.0646 54.2607 85.6092C55.4447 82.1402 55.1023 78.5142 53.5902 75.4592C52.0638 72.3614 49.3533 69.8631 45.8154 68.7068C38.8395 66.4227 31.35 70.4627 28.9962 77.4149C28.2258 79.6705 25.7864 80.8839 23.5182 80.113L10.5935 75.7304C8.1398 74.9024 6.82734 72.2472 7.66901 69.7917L12.0486 56.858C12.8189 54.6024 11.6064 52.1613 9.35239 51.3904H9.32383C2.49058 49.0635 -1.53233 41.7686 0.55046 34.8592C2.73311 27.6214 10.4366 23.6956 17.5266 26.0939L17.8832 26.2224C20.1372 26.9933 22.5767 25.7799 23.347 23.5243L27.7265 10.5906C28.5539 8.13516 31.2074 6.8218 33.661 7.66407L49.3818 13.0032C50.0951 13.2458 50.8655 12.8604 51.108 12.1466L52.0495 9.3486C54.4033 2.39635 61.8928 -1.64366 68.8687 0.640443C72.4066 1.79677 75.1313 4.29501 76.6435 7.39283C78.1414 10.4335 78.4838 14.0596 77.314 17.5428L76.2441 20.6977C76.0015 21.4115 76.3867 22.1824 77.1 22.4251L92.8207 27.7642C95.2744 28.5922 96.5869 31.2475 95.7452 33.7029L95.7595 33.6743Z" fill="#EF6936"/>
</svg>
