<svg width="30" height="36" viewBox="0 0 30 36" fill="none" xmlns="http://www.w3.org/2000/svg">
<path d="M26.0236 3.94487C21.9327 3.05116 17.8417 2.15745 13.7507 1.27815C11.4172 0.773637 8.43539 -0.466026 6.10182 0.715979C3.76824 1.89798 3.60978 4.37731 3.07681 6.66924C2.08288 11.0081 1.08898 15.3469 0.0950532 19.6713C-0.236256 21.1272 0.296683 22.9434 1.72275 23.6642C9.22764 27.4985 16.9342 32.3274 24.9144 35.095C26.4269 35.614 28.0979 34.7347 28.9046 33.4662C30.8348 30.4823 29.6536 25.3074 29.524 21.9632C29.3511 17.0911 29.1206 12.2189 28.6165 7.36115C28.1555 2.87818 21.0828 2.83494 21.5437 7.36115C21.9471 11.3252 22.1775 15.2892 22.3504 19.2677C22.4224 21.0407 22.48 22.8281 22.5377 24.6011C22.5665 25.4804 23.2147 29.2427 22.7826 29.8913L26.7727 28.2625C19.3974 25.7111 12.2239 21.0984 5.26636 17.5523L6.8941 21.5452C7.31184 19.729 9.05478 7.90891 9.96228 7.59178C10.5817 7.37556 14.7591 8.71613 15.9547 8.97559C18.6772 9.5666 21.4141 10.1576 24.1366 10.763C28.5733 11.7288 30.4603 4.91065 26.0092 3.94487H26.0236Z" fill="#EF6936"/>
</svg>
