<svg width="91" height="97" viewBox="0 0 91 97" fill="none" xmlns="http://www.w3.org/2000/svg">
<path d="M61.8136 38.5367C64.7436 45.2395 72.5147 48.2707 79.1817 45.3391C81.5314 44.3003 84.2633 45.3676 85.2966 47.7299L90.6047 59.8548C91.638 62.2172 90.5764 64.9638 88.2267 66.0026L73.2649 72.6201C72.5147 72.9474 72.175 73.8297 72.5005 74.584L73.6471 77.2025C76.5205 83.7772 73.8877 91.6328 67.4472 94.7494C60.6953 98.0225 52.6412 94.9913 49.6545 88.1462L48.3805 85.2288C48.055 84.4746 47.1774 84.133 46.4272 84.4603L31.4654 91.0778C29.1157 92.1166 26.3838 91.0493 25.3505 88.687L0.395312 31.6346C-0.637998 29.2723 0.423622 26.5257 2.77334 25.4868L15.1164 20.0221C17.3105 19.0544 19.8725 20.0505 20.835 22.2563C23.6094 28.5892 30.7152 31.9904 37.2265 29.7704C44.6436 27.2372 48.1682 18.9405 45.0824 11.8819C44.0491 9.51955 45.1107 6.77295 47.4605 5.73409L59.5205 0.397439C61.8702 -0.641429 64.6021 0.425896 65.6354 2.78825L72.812 19.1967L68.5513 21.0752C61.8985 24.021 58.8693 31.8339 61.7994 38.5225L61.8136 38.5367Z" fill="#F7CB62"/>
</svg>
