<svg width="30" height="29" viewBox="0 0 30 29" fill="none" xmlns="http://www.w3.org/2000/svg">
<path d="M8.5868 2.15629L3.10538 15.4844C2.01484 18.1388 -0.883717 22.2881 0.264221 25.2918C1.05343 27.3455 2.9619 27.9183 4.99949 28.0022C9.23251 28.1838 14.1112 26.9963 18.2151 26.158C22.319 25.3198 32.3922 24.3977 29.4793 17.9153C26.3942 11.0557 19.3056 5.69088 13.7955 0.815088C10.8396 -1.79744 6.42006 2.47762 9.39035 5.10412C12.7481 8.07988 16.3354 10.8461 19.2339 14.2689C20.1666 15.3726 20.9988 16.5461 21.8311 17.7057C22.1324 18.1248 22.4194 18.544 22.7207 18.9631C23.1369 19.9271 23.3952 19.8153 23.5243 18.6138C21.9029 19.8153 17.6268 20.0947 15.704 20.4719C12.9489 21.0028 9.34731 20.8352 6.79314 21.7712L5.01381 21.9249L6.39137 23.7411C6.63531 23.769 7.98414 19.8712 8.09893 19.5778L14.6134 3.74895C16.1058 0.13053 10.0791 -1.44818 8.60112 2.1423L8.5868 2.15629Z" fill="#7BC1B9"/>
</svg>
